<svg xmlns="http://www.w3.org/2000/svg" width="1100" height="430" viewBox="0 0 1100 430">
<defs>
  <marker id="a" markerWidth="12" markerHeight="12" refX="10" refY="6" orient="auto">
    <path d="M0,0 L12,6 L0,12 Z" fill="#333"/>
  </marker>
  <style>
    .t{font-family:Arial,DejaVu Sans,sans-serif;fill:#111;text-anchor:middle}
    .s{font-family:Arial,DejaVu Sans,sans-serif;fill:#333;text-anchor:middle}
  </style>
</defs>
<rect width="1100" height="430" fill="white"/>
<text x="550" y="42" font-size="30" class="t">Ректенгуляризация: четырёхугольник преобразуется в прямоугольник</text>

<rect x="55" y="85" width="390" height="280" rx="8" fill="#f5f5f5" stroke="#333" stroke-width="3"/>
<polygon points="130,145 385,110 410,315 95,335" fill="#dce9ff" stroke="#245a9a" stroke-width="4"/>
<circle cx="130" cy="145" r="8" fill="#d33"/><circle cx="385" cy="110" r="8" fill="#d33"/>
<circle cx="410" cy="315" r="8" fill="#d33"/><circle cx="95" cy="335" r="8" fill="#d33"/>
<text x="250" y="397" font-size="23" class="s">Область в перспективе</text>

<line x1="475" y1="225" x2="620" y2="225" stroke="#333" stroke-width="4" marker-end="url(#a)"/>
<text x="548" y="195" font-size="23" class="s">гомография</text>
<text x="548" y="265" font-size="20" class="s">warpPerspective</text>

<rect x="660" y="85" width="390" height="280" rx="8" fill="#f5f5f5" stroke="#333" stroke-width="3"/>
<rect x="720" y="125" width="270" height="200" fill="#dce9ff" stroke="#245a9a" stroke-width="4"/>
<circle cx="720" cy="125" r="8" fill="#d33"/><circle cx="990" cy="125" r="8" fill="#d33"/>
<circle cx="990" cy="325" r="8" fill="#d33"/><circle cx="720" cy="325" r="8" fill="#d33"/>
<text x="855" y="397" font-size="23" class="s">Ректенгуляризированный результат</text>
</svg>